<?xml version="1.0" standalone="no"?>
<!DOCTYPE svg PUBLIC "-//W3C//DTD SVG 20010904//EN"
 "http://www.w3.org/TR/2001/REC-SVG-20010904/DTD/svg10.dtd">
<svg version="1.0" xmlns="http://www.w3.org/2000/svg"
 width="1280.000000pt" height="720.000000pt" viewBox="0 0 1280.000000 720.000000"
 preserveAspectRatio="xMidYMid meet">
<metadata>
Created by potrace 1.15, written by Peter Selinger 2001-2017
</metadata>
<g transform="translate(0.000000,720.000000) scale(0.100000,-0.100000)"
fill="#000000" stroke="none">
<path d="M7753 5714 c-33 -16 -63 -73 -63 -118 0 -19 -7 -25 -32 -30 -18 -3
-334 -46 -703 -95 -1582 -213 -3050 -410 -3129 -422 -39 -5 -70 -10 -71 -12
-1 -2 152 -872 331 -1887 l19 -105 1700 -5 c1502 -4 1700 -7 1700 -20 0 -40
-16 -270 -22 -307 l-5 -43 -1674 0 c-1276 0 -1679 -3 -1699 -12 -33 -15 -55
-56 -55 -102 0 -26 7 -40 31 -60 l31 -26 1755 0 1755 0 29 29 c18 19 29 40 29
58 0 15 14 213 30 438 16 226 39 543 51 705 12 162 25 297 30 298 5 2 9 56 9
120 0 112 77 1232 85 1241 2 2 167 39 366 83 199 43 370 83 380 89 77 41 53
168 -35 184 -20 4 -148 -20 -353 -65 -176 -38 -326 -70 -332 -70 -6 0 -11 16
-11 35 0 51 -24 91 -61 104 -41 14 -48 14 -86 -5z m-86 -461 c-10 -171 -66
-943 -73 -1001 l-5 -52 -302 2 -302 3 -7 170 c-12 300 -27 880 -22 884 4 4
657 97 703 100 12 1 13 -18 8 -106z m-912 -295 c17 -592 20 -750 16 -754 -8
-7 -1021 -4 -1021 4 -1 4 -13 203 -29 442 -15 239 -24 437 -20 441 5 3 203 31
441 63 238 32 456 61 483 66 28 4 66 8 86 9 l36 1 8 -272z m-1261 15 c12 -166
46 -708 46 -740 l0 -33 -375 0 c-292 0 -377 3 -380 13 -7 19 -63 741 -58 747
5 6 677 98 724 99 l36 1 7 -87z m-973 -70 c0 -16 13 -176 28 -358 15 -181 26
-333 24 -337 -2 -5 -107 -8 -233 -8 l-228 0 -6 28 c-8 38 -104 581 -108 612
l-3 25 225 31 c124 18 242 32 263 33 34 1 37 -1 38 -26z m73 -935 c6 -37 56
-670 56 -705 l0 -23 -184 0 -184 0 -6 28 c-15 70 -126 704 -126 717 0 13 33
15 220 15 l219 0 5 -32z m980 -240 c9 -150 20 -321 23 -380 l6 -108 -371 0
-371 0 -5 53 c-6 45 -56 681 -56 700 0 4 170 7 378 7 l378 0 18 -272z m1210
145 c3 -71 9 -242 12 -380 l6 -253 -496 0 c-335 0 -496 3 -496 10 0 17 -39
618 -44 688 l-5 62 508 0 509 0 6 -127z m791 90 c-3 -21 -14 -173 -25 -338
-11 -165 -23 -319 -26 -342 l-5 -43 -253 0 -253 0 -6 88 c-4 48 -9 219 -13
380 l-7 292 297 0 296 0 -5 -37z"/>
<path d="M7139 2366 c-283 -100 -412 -427 -271 -690 40 -75 135 -167 214 -205
319 -157 698 78 698 434 0 171 -83 324 -227 415 -114 73 -286 92 -414 46z"/>
<path d="M4695 2157 c-110 -37 -195 -112 -242 -212 -24 -52 -28 -72 -28 -150
0 -77 4 -99 28 -151 36 -77 113 -154 192 -191 51 -24 73 -28 150 -28 80 0 97
3 155 31 83 39 145 101 184 184 28 58 31 75 31 155 0 80 -3 97 -31 155 -62
131 -182 211 -323 217 -45 2 -92 -3 -116 -10z"/>
</g>
</svg>
